<svg xmlns="http://www.w3.org/2000/svg" width="192" height="100" viewBox="0 0 192 100">
  <rect x="1" y="1" width="190" height="98" rx="16" fill="#003057" stroke="#C9A800" stroke-width="1.5"/>
  <svg x="8" y="10" width="70" height="70" viewBox="0 0 2048 2048">
    <path fill="#003057" d="M3 3L2048 3L2048 2048L3 2048ZM382 93L367 106L370 124L479 437L1123 792L1177 770L1181 746ZM35 207L23 222L26 237L187 685L206 697L293 713L504 929L931 942L874 1012L773 943L674 981L546 1069L413 1208L306 1377L244 1532L211 1706L206 1830L212 1848L229 1858L323 1784L404 1765L506 1716L678 1607L766 1542L729 1809L571 1887L529 1953L559 1956L755 1859L783 1806L827 1487L851 1459L949 1465L986 1430L1022 1353L1090 1351L1172 1335L1094 1619L970 1737L933 1819L940 1827L958 1825L1127 1664L1163 1580L1235 1314L1332 1262L1307 1360L1314 1378L1352 1393L1411 1363L1281 1555L1243 1661L1275 1658L1485 1340L1496 1305L1490 1293L1414 1302L1373 1320L1402 1209L1485 1117L1521 1164L1577 1216L1629 1248L1668 1257L1670 1309L1698 1317L1744 1274L1797 1194L1832 1084L1832 998L1818 942L1790 887L1833 838L1877 865L1933 927L1974 987L1998 1045L2009 1051L2020 1041L1997 983L1959 924L1868 830L1828 812L1777 867L1727 818L1685 793L1689 685L1734 674L1787 676L1883 702L1953 745L1975 777L1991 780L1992 759L1977 738L1936 704L1886 679L1785 653L1703 656L1667 676L1663 782L1593 761L1534 756L1474 794L1441 836L1347 766L1315 761L1210 768L1158 781L1125 802ZM432 170L1120 734L1121 747L1110 751L501 398ZM70 262L463 478L552 738L215 656ZM354 728L1175 916L518 897ZM552 1112L639 1245L714 1330L802 1403L783 1424L772 1481L668 1553L608 1516L528 1450L442 1350L408 1290L475 1196ZM908 1322L964 1343L932 1411L882 1410ZM269 1605L369 1652L489 1680L404 1718L308 1747L240 1803L246 1720ZM0 0L2048 3L3 3L0 2048ZM382 93L1181 746L1182 764L1122 792L479 436L370 124L367 106ZM381 96L370 105L373 124L482 436L1123 789L1176 767L1179 748ZM434 167L1122 732L1120 751L1110 754L499 400L427 170ZM433 170L501 398L1110 751L1121 747L1120 735ZM34 207L1124 802L1158 781L1210 768L1314 761L1346 766L1440 836L1474 794L1533 757L1592 761L1663 782L1667 676L1702 656L1784 653L1903 686L1977 738L1992 758L1990 780L1975 776L1962 754L1934 731L1883 702L1786 676L1734 674L1689 685L1685 793L1739 828L1776 867L1828 812L1868 830L1959 924L1997 982L2020 1040L2008 1051L1998 1044L1974 987L1933 927L1876 865L1833 838L1790 886L1818 941L1832 998L1832 1084L1797 1194L1743 1273L1698 1317L1670 1308L1668 1257L1620 1244L1576 1216L1521 1164L1484 1117L1402 1208L1373 1320L1414 1302L1490 1293L1496 1304L1485 1340L1274 1658L1256 1665L1243 1660L1281 1554L1411 1362L1352 1393L1328 1389L1314 1378L1307 1360L1332 1262L1235 1314L1163 1580L1127 1664L958 1825L940 1827L933 1818L970 1736L1094 1618L1172 1335L1089 1351L1022 1352L986 1430L948 1465L850 1459L827 1486L783 1806L754 1859L558 1956L529 1952L570 1887L729 1808L766 1542L678 1607L506 1716L404 1765L322 1784L228 1858L212 1848L206 1830L211 1706L244 1532L306 1377L413 1208L546 1069L674 981L772 943L874 1012L931 942L504 929L292 713L206 697L187 684L26 236L23 222ZM35 210L26 220L29 237L190 684L206 694L296 711L499 924L937 940L875 1016L770 945L688 977L550 1069L488 1126L408 1219L308 1380L241 1554L212 1724L209 1833L228 1855L320 1782L393 1766L504 1714L664 1613L770 1535L731 1811L572 1890L531 1951L554 1955L755 1855L780 1806L825 1483L847 1457L947 1463L984 1428L1019 1352L1088 1349L1176 1331L1097 1620L972 1739L935 1823L956 1822L1120 1668L1135 1641L1159 1584L1233 1312L1336 1256L1310 1356L1317 1377L1352 1390L1420 1354L1282 1559L1246 1660L1274 1655L1482 1340L1494 1303L1482 1294L1416 1304L1369 1325L1400 1207L1485 1111L1538 1179L1573 1209L1637 1248L1671 1256L1668 1291L1678 1311L1700 1313L1729 1285L1788 1204L1824 1113L1832 1054L1829 994L1814 939L1787 888L1833 835L1878 862L1920 906L1956 954L2001 1044L2016 1045L2009 1014L1969 943L1923 885L1870 835L1830 814L1776 871L1735 828L1682 795L1687 683L1740 671L1793 674L1887 701L1938 730L1963 751L1978 776L1989 778L1991 766L1975 740L1885 682L1766 654L1693 662L1669 679L1665 786L1590 763L1531 760L1476 796L1442 840L1350 770L1335 766L1284 763L1198 773L1155 785L1126 806ZM66 257L465 476L557 742L213 660ZM71 262L215 657L552 738L463 478ZM344 722L1201 918L514 899ZM355 728L519 897L1175 916ZM554 1107L603 1191L664 1270L748 1358L809 1406L791 1416L778 1478L668 1557L607 1519L525 1452L442 1356L405 1288L485 1179ZM553 1112L475 1196L408 1290L442 1351L528 1451L580 1496L668 1553L772 1481L783 1425L802 1403L714 1330L639 1245ZM908 1317L968 1341L934 1414L878 1412ZM908 1322L882 1410L933 1411L964 1343ZM268 1600L358 1645L498 1679L422 1714L312 1749L238 1809L246 1701ZM269 1605L246 1720L241 1803L309 1747L404 1718L489 1680L369 1652Z"/>
<path fill="#fefefe" d="M434 165L1124 736L442 169L430 167L427 174ZM440 219L482 350ZM508 406L1102 751L1122 750L1108 755Z"/>
<path fill="#b1a269" d="M500 493L1246 902L586 748ZM505 498L588 748L1235 898ZM1544 785L1614 795L1664 814L1668 857L1679 852L1680 824L1750 882L1789 948L1803 1002L1805 1062L1794 1110L1804 1036L1798 984L1759 895L1682 826L1680 855L1666 858L1662 815L1616 797ZM1542 786L1503 808L1479 831L1451 902L1461 998L1506 1094L1461 1004L1448 918L1456 874L1472 838L1496 811ZM1282 790L1336 793L1432 866L1422 917L1427 974L1439 1018L1471 1084L1444 1124L1412 1159L1415 1140L1406 1126L1388 1122L1370 1132L1344 1219L1242 1277L1266 1184L1254 1165L1236 1161L1221 1172L1185 1300L1160 1308L1034 1324L1032 1308L1018 1294L1002 1293L980 1317L943 1306L897 1278L872 1250L854 1212L849 1152L862 1100L851 1188L877 1255L917 1290L962 1311L980 1315L1002 1291L1025 1296L1034 1322L1082 1321L1184 1298L1217 1176L1228 1163L1250 1162L1267 1180L1244 1275L1346 1214L1374 1126L1403 1122L1415 1134L1415 1152L1440 1126L1470 1082L1442 1031L1424 968L1421 912L1430 866L1334 794L1316 791L1230 799L1156 822L1344 923L1357 942L1352 951L974 940L882 1055L920 998L973 939L1350 950L1355 940L1346 926L1152 822L1214 801ZM1542 842L1559 843L1583 862L1632 943L1657 1032L1654 1069L1636 1082L1606 1086L1565 1069L1530 1032L1506 987L1494 944L1496 887L1511 857ZM1544 844L1515 857L1495 896L1496 949L1512 998L1544 1046L1572 1071L1609 1084L1647 1076L1655 1029L1627 937L1580 861ZM758 975L863 1036L836 1096L823 1166L835 1234L873 1294L850 1395L798 1367L742 1317L630 1186L744 1318L820 1380L848 1394L871 1290L833 1234L822 1154L837 1091L862 1036L760 976L678 1013L600 1067L575 1090L578 1098L573 1088L672 1015ZM1508 1095L1531 1131L1580 1179L1646 1222L1678 1226L1695 1238L1640 1221L1602 1199L1544 1148ZM1784 1142L1744 1226L1696 1280L1696 1242L1698 1276L1753 1208ZM387 1316L458 1416L389 1319L327 1435L277 1572L342 1610L392 1628L472 1647L542 1654L649 1578L533 1495L458 1418L551 1509L652 1578L542 1655L474 1649L384 1627L325 1604L275 1572L324 1437Z"/>
<path fill="#ffffff" d="M382 97L1178 748L1174 767L1122 788L482 434L372 118L371 106ZM434 165L426 168L440 224L502 406L1109 755L1124 750L1125 734ZM38 211L1127 807L1154 786L1202 773L1323 765L1352 773L1442 841L1480 794L1533 761L1612 769L1666 788L1670 678L1693 663L1764 655L1882 682L1971 736L1990 764L1988 777L1950 738L1886 700L1792 673L1738 670L1686 684L1681 794L1738 833L1776 873L1829 817L1870 836L1919 882L1967 942L2016 1042L2008 1047L2001 1042L1967 968L1918 902L1850 841L1831 834L1785 886L1820 960L1831 1020L1825 1101L1792 1194L1735 1276L1700 1311L1674 1306L1672 1256L1636 1247L1578 1212L1526 1164L1484 1110L1398 1208L1368 1326L1418 1304L1482 1295L1492 1306L1482 1336L1272 1654L1247 1659L1283 1558L1423 1352L1344 1390L1316 1372L1312 1352L1337 1254L1232 1310L1159 1580L1125 1658L955 1821L936 1822L974 1737L1098 1620L1177 1330L1110 1345L1019 1349L983 1426L946 1462L848 1456L824 1482L779 1804L752 1856L556 1953L533 1951L572 1891L732 1812L771 1532L664 1611L502 1714L400 1762L318 1782L228 1854L210 1829L214 1714L224 1632L248 1530L312 1374L422 1202L556 1066L650 999L722 962L770 947L874 1018L939 938L505 925L296 710L204 692L190 682L27 222ZM64 255L212 660L558 743L466 475ZM499 492L586 749L1249 903ZM342 721L515 900L1210 920ZM1541 785L1496 811L1461 857L1447 923L1457 997L1511 1108L1542 1147L1617 1209L1691 1236L1696 1282L1758 1205L1801 1097L1806 1024L1795 964L1756 888L1705 838L1680 823L1678 853L1669 856L1665 815L1657 811L1613 794ZM1290 789L1217 800L1151 822L1346 927L1352 947L972 939L921 996L868 1081L848 1157L857 1222L896 1279L943 1307L981 1318L992 1301L1009 1293L1028 1302L1031 1324L1101 1321L1166 1308L1185 1301L1215 1190L1236 1162L1256 1168L1265 1183L1241 1278L1344 1220L1375 1129L1388 1123L1408 1129L1412 1161L1444 1125L1472 1084L1444 1029L1428 980L1423 924L1432 866L1336 792ZM758 974L657 1024L572 1089L614 1162L687 1261L784 1356L850 1396L874 1292L837 1238L824 1158L836 1101L864 1034ZM553 1106L473 1192L404 1288L440 1355L519 1448L604 1518L669 1558L779 1480L785 1432L793 1417L812 1406L740 1349L653 1256ZM388 1315L324 1436L274 1572L365 1621L445 1644L542 1656L653 1576L598 1544L484 1445L423 1371ZM906 1316L877 1412L936 1415L970 1342ZM268 1599L242 1719L237 1811L313 1750L388 1728L502 1678L374 1649Z"/>
<path fill="#b3a369" d="M504 498L1236 898L588 748ZM1542 785L1612 796L1663 816L1666 858L1678 856L1682 826L1724 854L1760 894L1789 952L1804 1032L1790 1127L1745 1222L1698 1276L1692 1234L1651 1224L1606 1200L1552 1154L1507 1098L1470 1024L1450 944L1456 878L1466 848L1490 817ZM1543 842L1511 857L1496 887L1494 944L1506 988L1530 1032L1566 1069L1606 1086L1637 1082L1655 1065L1657 1033L1632 943L1583 862L1559 843ZM1286 791L1334 794L1430 866L1421 910L1424 970L1443 1032L1471 1084L1448 1119L1416 1153L1416 1138L1403 1122L1374 1126L1344 1217L1244 1275L1267 1180L1250 1161L1226 1164L1211 1196L1186 1297L1162 1306L1040 1323L1034 1322L1031 1301L1012 1291L989 1300L980 1315L903 1281L862 1227L850 1166L861 1100L912 1009L972 940L1352 951L1357 940L1344 923L1156 822L1220 801ZM760 976L862 1036L835 1096L822 1152L831 1228L871 1290L848 1394L784 1356L701 1274L630 1185L574 1092L595 1070L678 1012ZM387 1319L442 1399L518 1481L586 1538L649 1577L560 1646L542 1654L494 1650L390 1628L277 1572L328 1434Z"/>
<path fill="#000000" d="M1546 844L1583 866L1630 944L1655 1032L1654 1062L1644 1077L1604 1083L1576 1073L1543 1044L1511 993L1495 938L1496 896L1513 859Z"/>
  </svg>
  <text x="90" y="46"
    font-family="ui-monospace, 'SF Mono', 'Menlo', 'Consolas', 'Courier New', monospace"
    font-size="32" font-weight="700" letter-spacing="3"
    fill="#C9A800">lizt</text>
  <text x="14" y="67"
    text-anchor="start"
    font-family="system-ui, -apple-system, sans-serif"
    font-size="8.5" letter-spacing="1.5"
    fill="#C9A800" opacity="0.55">RUNTIME REACHABILITY</text>
</svg>
