<svg xmlns="http://www.w3.org/2000/svg" width="2048" height="2048" viewBox="0 0 2048 2048" version="1.1">
	<path fill-opacity="0.648" d="M 378.500 97.487 C 372.579 100.268, 370 103.714, 370 108.845 C 370 112.525, 370.484 114.025, 387.968 164.500 C 395.779 187.050, 404.787 213.150, 407.985 222.500 C 411.183 231.850, 418.390 252.775, 424 269 C 429.610 285.225, 436.810 306.150, 440 315.500 C 448.389 340.087, 466.133 391.604, 470.827 405 C 473.043 411.325, 475.127 418.541, 475.457 421.036 C 476.145 426.229, 482.213 435.780, 486.066 437.735 C 487.405 438.415, 489.890 438.977, 491.588 438.985 C 493.508 438.994, 499.183 441.505, 506.588 445.620 C 513.140 449.261, 523.225 454.819, 529 457.972 C 534.775 461.125, 546.925 467.880, 556 472.985 C 575.393 483.893, 588.555 491.229, 595.500 495 C 601.261 498.128, 613.345 504.864, 630.500 514.511 C 646.384 523.442, 658.427 530.153, 670 536.521 C 675.225 539.397, 690.750 548.031, 704.500 555.708 C 733.105 571.680, 735.464 572.990, 754.500 583.500 C 762.200 587.752, 768.950 591.567, 769.500 591.979 C 770.050 592.390, 778.150 596.896, 787.500 601.992 C 796.850 607.088, 813.050 616.093, 823.500 622.004 C 840.038 631.358, 871.582 648.897, 944 689.007 C 954.175 694.642, 967.450 702.064, 973.500 705.500 C 979.550 708.936, 993.275 716.598, 1004 722.526 C 1036.821 740.668, 1109.104 780.999, 1116.174 785.115 C 1119.845 787.252, 1123.670 788.999, 1124.674 788.999 C 1126.849 788.997, 1143.325 778.658, 1142.488 777.821 C 1142.169 777.502, 1144.040 776.921, 1146.647 776.530 C 1149.253 776.139, 1154.337 774.531, 1157.943 772.955 C 1161.549 771.380, 1166.498 769.580, 1168.940 768.956 C 1174.593 767.511, 1179.460 762.728, 1180.400 757.694 C 1181.318 752.783, 1178.653 747.077, 1174.463 744.981 C 1172.793 744.146, 1162.952 736.496, 1152.595 727.981 C 1093.822 679.662, 1063.341 654.627, 1054.458 647.376 C 1051.005 644.558, 1044.427 639.134, 1039.840 635.322 C 1019.033 618.034, 1007.533 608.589, 995 598.495 C 987.575 592.515, 978.575 585.087, 975 581.988 C 971.425 578.889, 962.743 571.662, 955.707 565.927 C 948.670 560.192, 940.981 553.925, 938.619 552 C 936.258 550.075, 930.090 545.053, 924.913 540.841 C 914.573 532.427, 878.645 502.853, 859 486.585 C 852.125 480.892, 840.650 471.418, 833.500 465.532 C 826.350 459.647, 819.600 454.079, 818.500 453.160 C 817.400 452.242, 808.850 445.226, 799.500 437.570 C 790.150 429.913, 780.475 421.958, 778 419.891 C 771.538 414.494, 750.948 397.572, 740.956 389.448 C 736.257 385.626, 727.511 378.450, 721.520 373.500 C 705.973 360.656, 688.764 346.484, 670.517 331.500 C 661.810 324.350, 652.792 316.925, 650.477 315 C 648.162 313.075, 642.945 308.777, 638.884 305.449 C 634.823 302.121, 618.675 288.830, 603 275.914 C 572.645 250.902, 549.506 231.903, 529.084 215.222 C 522.163 209.569, 510.662 200.119, 503.527 194.222 C 484.522 178.514, 447.854 148.337, 420.074 125.541 C 406.696 114.564, 394.801 104.298, 393.640 102.727 C 391.123 99.323, 386.003 95.985, 383.382 96.039 C 382.347 96.061, 380.150 96.712, 378.500 97.487 M 33.388 210.980 C 30.118 212.301, 27.165 216.719, 26.475 221.320 C 25.788 225.911, 25.272 224.314, 42.029 269.500 C 47.129 283.250, 53.202 299.675, 55.527 306 C 57.851 312.325, 62.235 324.250, 65.269 332.500 C 68.302 340.750, 74.158 356.725, 78.281 368 C 82.404 379.275, 86.262 389.625, 86.854 391 C 87.446 392.375, 91.350 402.950, 95.528 414.500 C 99.706 426.050, 107.567 447.425, 112.996 462 C 135.779 523.158, 141.524 539.486, 167.180 616 C 179.260 652.025, 189.898 682.356, 190.821 683.403 C 191.745 684.449, 195.200 687.070, 198.500 689.226 C 203.735 692.645, 205.074 693.090, 209 692.713 C 211.475 692.476, 217.100 693.106, 221.500 694.113 C 225.900 695.121, 240.525 698.442, 254 701.495 C 267.475 704.547, 282.427 707.982, 287.226 709.128 L 295.952 711.212 333.179 749.356 C 379.723 797.047, 390.880 808.565, 419.526 838.500 C 450.555 870.926, 463.382 884.322, 477 898.521 C 483.325 905.117, 491.514 913.874, 495.197 917.983 L 501.894 925.452 522.197 926.199 C 533.364 926.609, 574.675 927.856, 614 928.968 C 653.325 930.081, 691.575 931.211, 699 931.480 C 717.800 932.161, 744.422 932.909, 771.500 933.518 C 784.150 933.802, 799.675 934.256, 806 934.526 C 816.897 934.992, 854.998 936.090, 912.234 937.588 L 937.967 938.261 934.087 942.896 C 931.953 945.445, 925.978 951.798, 920.809 957.015 C 907.822 970.122, 893.165 988.611, 879.996 1008.500 C 877.083 1012.900, 874.608 1016.621, 874.497 1016.769 C 873.833 1017.653, 840.026 996.761, 813.743 979.225 C 787.693 961.844, 782.643 958.082, 780.743 954.640 C 776.242 946.488, 768.930 944.183, 758.428 947.607 C 742.441 952.819, 717.690 963.082, 698.500 972.456 C 655.715 993.357, 601.266 1028.585, 561 1061.419 C 556.875 1064.783, 552.215 1068.356, 550.645 1069.359 C 549.075 1070.362, 545.925 1073.056, 543.645 1075.345 C 541.365 1077.635, 533.880 1084.456, 527.011 1090.504 C 433.592 1172.758, 347.283 1291.363, 293.057 1412 C 279.118 1443.012, 277.216 1447.545, 268.494 1470.561 C 234.856 1559.321, 215.151 1653.650, 212.523 1738.500 C 212.216 1748.400, 211.717 1762.329, 211.414 1769.453 C 209.221 1820.952, 209.120 1830.428, 210.700 1836 C 212.780 1843.339, 214.738 1845.885, 222.104 1850.831 C 228.521 1855.140, 231.564 1855.833, 235.316 1853.840 C 236.517 1853.201, 246.275 1844.505, 257 1834.515 C 299.623 1794.813, 303.376 1791.598, 315.576 1784.325 C 320.598 1781.331, 330.287 1779.104, 345.484 1777.449 C 369.861 1774.795, 408.119 1761.061, 451 1739.571 C 490.729 1719.661, 506.952 1711.049, 518.158 1703.918 C 524.571 1699.838, 537.171 1692.034, 546.158 1686.576 C 555.146 1681.118, 571.487 1670.819, 582.472 1663.690 C 593.457 1656.561, 611.457 1645.095, 622.472 1638.209 C 633.487 1631.324, 652.175 1619.281, 664 1611.447 C 683.425 1598.578, 693.113 1591.854, 714.385 1576.477 C 723.698 1569.745, 751.920 1547.973, 761.447 1540.171 C 765.698 1536.690, 769.367 1534.034, 769.602 1534.269 C 769.837 1534.503, 769.338 1539.826, 768.494 1546.098 C 767.650 1552.369, 766.298 1562.450, 765.491 1568.500 C 763.700 1581.917, 760.557 1604.021, 759.092 1613.500 C 758.497 1617.350, 757.320 1625.675, 756.476 1632 C 754.697 1645.326, 751.742 1665.944, 748.952 1684.500 C 747.876 1691.650, 746.548 1701.213, 745.998 1705.750 C 744.065 1721.727, 742.857 1730.613, 740.393 1746.976 C 739.025 1756.064, 737.262 1768.900, 736.476 1775.500 C 735.043 1787.526, 733.618 1797.150, 731.887 1806.503 C 731.013 1811.223, 730.664 1811.659, 725.730 1814.199 C 710.517 1822.031, 572.630 1890, 571.955 1890 C 571.519 1890, 567.162 1895.512, 562.273 1902.250 C 557.385 1908.987, 551.089 1917.650, 548.283 1921.500 C 543.309 1928.324, 532 1948.130, 532 1950.015 C 532 1952.073, 540.516 1955.312, 546 1955.339 C 551.101 1955.365, 553.746 1954.258, 582.500 1940.055 C 599.550 1931.634, 626.550 1918.339, 642.500 1910.512 C 758.182 1853.744, 756.385 1854.728, 759.905 1846.229 C 760.626 1844.490, 762.043 1842.804, 763.055 1842.483 C 765.085 1841.838, 767.085 1837.040, 772.015 1820.987 C 773.920 1814.785, 776.209 1809.456, 777.618 1807.945 C 778.928 1806.540, 779.997 1804.290, 779.993 1802.945 C 779.989 1801.600, 780.878 1794.875, 781.968 1788 C 783.058 1781.125, 785.544 1763.800, 787.493 1749.500 C 789.443 1735.200, 791.686 1719.450, 792.478 1714.500 C 793.271 1709.550, 794.390 1701.450, 794.966 1696.500 C 795.542 1691.550, 796.672 1683.450, 797.478 1678.500 C 798.284 1673.550, 799.867 1662.300, 800.995 1653.500 C 802.122 1644.700, 803.688 1633.225, 804.473 1628 C 805.259 1622.775, 806.829 1611.750, 807.962 1603.500 C 814.651 1554.827, 817.623 1533.663, 821.514 1507 C 822.276 1501.775, 823.190 1494.829, 823.545 1491.565 C 824.453 1483.208, 824.929 1482.315, 833.193 1473.433 C 837.254 1469.070, 842.059 1463.587, 843.872 1461.250 L 847.168 1457 854.012 1457 C 857.776 1457, 864.150 1457.445, 868.178 1457.989 C 875.694 1459.004, 934.473 1463, 941.886 1463 C 944.957 1463, 946.467 1462.433, 947.760 1460.792 C 950.380 1457.468, 956.201 1452.034, 969.818 1440.203 C 983.602 1428.226, 981.076 1432.190, 998.306 1395.500 C 1002.439 1386.700, 1008.954 1372.856, 1012.783 1364.735 L 1019.745 1349.970 1050.123 1349.604 C 1079.007 1349.256, 1087.320 1348.626, 1110.551 1345.025 C 1128.577 1342.230, 1156.946 1335.973, 1171.250 1331.636 C 1174.971 1330.508, 1176 1330.468, 1176 1331.454 C 1176 1332.146, 1173.809 1340.315, 1171.130 1349.606 C 1168.452 1358.898, 1163.687 1376.175, 1160.541 1388 C 1157.396 1399.825, 1153.759 1413.100, 1152.458 1417.500 C 1151.158 1421.900, 1147.822 1434.050, 1145.044 1444.500 C 1139.577 1465.068, 1134.230 1484.644, 1127.427 1509 C 1125.045 1517.525, 1121.690 1529.900, 1119.969 1536.500 C 1118.249 1543.100, 1116.264 1550.525, 1115.558 1553 C 1114.853 1555.475, 1112.871 1562.675, 1111.154 1569 C 1109.438 1575.325, 1105.448 1589.650, 1102.288 1600.833 L 1096.542 1621.165 1085.335 1631.333 C 1073.968 1641.646, 1023.267 1689.659, 1014.972 1697.966 C 1008.615 1704.332, 981.318 1730.125, 976.480 1734.337 C 974.270 1736.262, 971.852 1739.561, 971.108 1741.668 C 970.364 1743.776, 966.698 1753.150, 962.961 1762.500 C 956.612 1778.386, 954.125 1783.743, 940.442 1811 C 937.543 1816.775, 935.489 1821.835, 935.879 1822.244 C 936.269 1822.653, 939.302 1823.271, 942.619 1823.618 C 953.483 1824.753, 952.494 1825.514, 1004.474 1776.041 C 1014.982 1766.040, 1030.121 1751.564, 1037.383 1744.574 C 1040.197 1741.865, 1045.425 1736.958, 1049 1733.670 C 1052.575 1730.381, 1060.900 1722.473, 1067.500 1716.095 C 1074.100 1709.717, 1089.332 1695.274, 1101.348 1683.999 L 1123.196 1663.500 1129.534 1650.233 C 1133.020 1642.935, 1138.431 1629.660, 1141.559 1620.733 C 1147.731 1603.117, 1152.724 1591.497, 1156.482 1586 C 1157.799 1584.075, 1159.597 1579.350, 1160.479 1575.500 C 1161.360 1571.650, 1164.497 1559.950, 1167.449 1549.500 C 1170.402 1539.050, 1174.208 1525.325, 1175.907 1519 C 1183.044 1492.432, 1186.197 1480.814, 1189.478 1469 C 1197.331 1440.720, 1200.043 1430.824, 1203.595 1417.500 C 1205.647 1409.800, 1208.315 1399.900, 1209.523 1395.500 C 1217.007 1368.233, 1224.666 1339.988, 1227.148 1330.500 C 1228.731 1324.450, 1230.708 1317.433, 1231.541 1314.907 L 1233.057 1310.313 1246.278 1304.489 C 1258.332 1299.180, 1267.895 1294.756, 1287.500 1285.420 C 1291.350 1283.587, 1297.461 1280.155, 1301.080 1277.794 C 1304.698 1275.432, 1310.463 1271.700, 1313.889 1269.500 C 1317.316 1267.300, 1323.692 1263.164, 1328.059 1260.309 C 1332.427 1257.454, 1335.984 1255.654, 1335.964 1256.309 C 1335.907 1258.241, 1331.091 1276.959, 1315.415 1336.179 C 1312.732 1346.314, 1311 1355.032, 1311 1358.400 C 1311 1365.127, 1314.574 1373.887, 1318.433 1376.618 C 1319.896 1377.653, 1323.200 1380.186, 1325.775 1382.247 C 1332.349 1387.509, 1338.458 1390.141, 1344.419 1390.280 C 1349.752 1390.405, 1355.065 1387.935, 1388 1370.020 C 1406.412 1360.005, 1420.200 1352.867, 1420.512 1353.188 C 1420.679 1353.360, 1412.869 1365.296, 1403.157 1379.714 C 1354.881 1451.383, 1344.859 1466.233, 1338.844 1475 C 1335.260 1480.225, 1328.505 1490.125, 1323.834 1497 C 1319.163 1503.875, 1313.162 1512.650, 1310.500 1516.500 C 1307.837 1520.350, 1303.874 1526.200, 1301.693 1529.500 C 1299.513 1532.800, 1294.372 1540.518, 1290.270 1546.652 C 1283.771 1556.370, 1281.529 1561.065, 1272.838 1583.152 C 1264.332 1604.771, 1246 1656.618, 1246 1659.058 C 1246 1660.653, 1253.076 1662.163, 1257.271 1661.463 C 1263.256 1660.463, 1271.871 1655.840, 1276.136 1651.338 C 1278.136 1649.227, 1284.959 1639.625, 1291.299 1630 C 1297.638 1620.375, 1310.467 1601.250, 1319.809 1587.500 C 1329.150 1573.750, 1349.242 1544.050, 1364.458 1521.500 C 1379.675 1498.950, 1398.227 1471.500, 1405.687 1460.500 C 1450.715 1394.100, 1458.814 1381.551, 1462.081 1373.121 C 1464.636 1366.526, 1474.406 1349.237, 1477.334 1346.129 C 1482.016 1341.160, 1493 1310.286, 1493 1302.095 C 1493 1299.208, 1488.778 1296.146, 1483.128 1294.934 C 1477.099 1293.641, 1458.713 1295.092, 1449.653 1297.576 C 1432.510 1302.276, 1425.060 1303.983, 1421.648 1303.991 C 1413.565 1304.010, 1391.673 1312.616, 1374.698 1322.448 C 1372.057 1323.978, 1369.661 1324.994, 1369.374 1324.707 C 1368.772 1324.105, 1372.079 1310.723, 1381.537 1275.500 C 1385.229 1261.750, 1388.827 1248.025, 1389.533 1245 C 1390.238 1241.975, 1392.696 1232.300, 1394.993 1223.500 L 1399.171 1207.500 1416.464 1190.782 C 1440.367 1167.675, 1461.295 1143.571, 1476.412 1121.739 C 1480.105 1116.404, 1483.496 1111.812, 1483.946 1111.533 C 1484.396 1111.255, 1488.015 1115.986, 1491.986 1122.048 C 1513.060 1154.207, 1545.576 1187.928, 1582 1215.396 C 1613.776 1239.360, 1635.626 1249.488, 1664.500 1253.638 L 1670.500 1254.500 1670.414 1259 C 1670.366 1261.475, 1669.975 1271.825, 1669.545 1282 L 1668.764 1300.500 1671.950 1304.835 C 1677.893 1312.921, 1691.793 1316.864, 1698.765 1312.442 C 1707.518 1306.891, 1741.543 1270.718, 1756.628 1250.926 C 1763.139 1242.384, 1779.312 1217.776, 1785.340 1207.240 C 1801.135 1179.631, 1814.785 1145.470, 1822.537 1114.143 C 1830.974 1080.049, 1833.730 1033.944, 1829.192 1002.801 C 1823.376 962.884, 1811.408 928.383, 1792.484 896.973 L 1785.786 885.857 1787.778 883.678 C 1788.874 882.480, 1799.047 871.403, 1810.385 859.061 C 1821.723 846.720, 1831 836.024, 1831 835.292 C 1831 832.271, 1844.585 837.960, 1856.386 845.923 C 1908.532 881.111, 1981.311 978.122, 1998.609 1035.500 C 2001.041 1043.567, 2002.523 1045.688, 2006.691 1047.063 C 2009.745 1048.071, 2010.565 1047.969, 2012.796 1046.303 C 2017.343 1042.908, 2017.538 1040.072, 2013.971 1029.236 C 1997.027 977.763, 1944.707 902.431, 1893.199 855.343 C 1869.067 833.283, 1847.797 820.031, 1833.750 818.305 C 1830.317 817.883, 1828.989 817.275, 1828.959 816.111 C 1828.931 814.983, 1828.106 815.438, 1826.209 817.628 C 1818.270 826.793, 1776.543 871.992, 1776.063 871.948 C 1775.753 871.919, 1773.250 869.137, 1770.500 865.766 C 1748.721 839.069, 1719.209 814.871, 1687.141 797.417 L 1681.782 794.500 1682.420 775.500 C 1682.771 765.050, 1683.280 752.225, 1683.552 747 C 1684.397 730.746, 1686 692.035, 1686 687.866 C 1686 683.968, 1686.117 683.840, 1692.329 680.933 C 1700.519 677.101, 1714.941 673.471, 1728.072 671.938 C 1739.483 670.605, 1770.024 671.198, 1783 673.003 C 1829.033 679.409, 1867.222 691.052, 1906.020 710.510 C 1927.121 721.092, 1942.763 731.845, 1956.838 745.444 C 1966.534 754.812, 1970.736 760.248, 1975.131 769.106 C 1978.785 776.470, 1980.340 777.936, 1984.500 777.936 C 1989.708 777.936, 1993.557 773.231, 1992.406 768.271 C 1991.480 764.281, 1985.361 753.397, 1980.447 747 C 1940.972 695.609, 1830.591 652.373, 1744.500 654.580 C 1713.947 655.363, 1692.946 660.271, 1677.310 670.282 C 1673.905 672.462, 1670.809 674.978, 1670.430 675.873 C 1670.051 676.768, 1669.386 686.950, 1668.953 698.500 C 1668.519 710.050, 1667.610 734.125, 1666.933 752 C 1666.255 769.875, 1665.365 784.881, 1664.954 785.347 C 1664.543 785.813, 1658.966 784.121, 1652.560 781.587 C 1623.053 769.916, 1582.733 761.052, 1551.487 759.368 C 1541.665 758.839, 1538.389 759.036, 1533.529 760.448 C 1525.723 762.718, 1518.802 766.286, 1514.214 770.405 C 1512.171 772.240, 1508.025 774.979, 1505 776.493 C 1489.202 784.401, 1471.448 798.681, 1460.997 811.888 C 1455.114 819.322, 1443.797 836.271, 1442.702 839.287 C 1442.363 840.221, 1441.748 840.196, 1440.031 839.179 C 1434.889 836.134, 1359.247 778.932, 1356.500 776.011 C 1352.516 771.775, 1350.082 770.618, 1340 768.166 C 1307.530 760.272, 1239.254 763.829, 1188 776.086 C 1163.236 782.008, 1146.137 788.102, 1137.106 794.225 C 1132.878 797.091, 1131.529 798.424, 1126.909 804.302 C 1125.342 806.294, 1125.089 806.203, 1110.909 798.518 C 1091.739 788.130, 1090.692 787.560, 1059.500 770.509 C 1044.650 762.391, 1024.175 751.256, 1014 745.765 C 1003.825 740.273, 994.600 735.221, 993.500 734.538 C 992.400 733.855, 988.350 731.600, 984.500 729.527 C 980.650 727.454, 972.775 723.163, 967 719.991 C 921.595 695.053, 903.069 684.897, 894 679.972 C 877.076 670.781, 851.395 656.778, 839 649.983 C 832.675 646.516, 825.700 642.697, 823.500 641.497 C 797.706 627.428, 693.593 570.445, 686 566.241 C 680.681 563.296, 645.552 544.105, 621.500 531.006 C 612.150 525.913, 597.750 518.027, 589.500 513.481 C 581.250 508.934, 555.150 494.654, 531.500 481.746 C 507.850 468.838, 473.875 450.272, 456 440.487 C 438.125 430.703, 418.100 419.780, 411.500 416.216 C 404.900 412.651, 393.650 406.484, 386.500 402.511 C 379.350 398.539, 369.900 393.348, 365.500 390.976 C 358.447 387.173, 333.799 373.670, 282 345.230 C 273.475 340.549, 260.200 333.360, 252.500 329.255 C 244.800 325.149, 235.125 319.867, 231 317.516 C 223.356 313.161, 220.595 311.644, 199.500 300.209 C 192.900 296.631, 185.700 292.697, 183.500 291.467 C 173.548 285.904, 168.518 283.146, 137 265.967 C 52.555 219.942, 52.576 219.954, 49 215.950 C 44.144 210.514, 38.773 208.804, 33.388 210.980 M 65 256.851 C 65 257.396, 69.311 269.465, 74.579 283.671 C 79.848 297.877, 84.728 311.300, 85.424 313.500 C 86.121 315.700, 87.641 319.750, 88.803 322.500 C 89.966 325.250, 94.347 336.950, 98.540 348.500 C 111.120 383.152, 113.521 389.710, 120.503 408.500 C 124.181 418.400, 131.371 437.975, 136.480 452 C 141.588 466.025, 147.806 482.900, 150.295 489.500 C 152.785 496.100, 156.399 505.775, 158.327 511 C 160.254 516.225, 164.169 526.800, 167.027 534.500 C 169.885 542.200, 174.149 553.900, 176.503 560.500 C 178.856 567.100, 183.503 579.700, 186.828 588.500 C 190.153 597.300, 194.754 609.675, 197.052 616 C 199.349 622.325, 202.701 631.550, 204.500 636.500 C 206.298 641.450, 209.059 648.822, 210.635 652.882 L 213.500 660.265 220.500 662.018 C 224.350 662.983, 232.450 664.938, 238.500 666.363 C 244.550 667.787, 260.975 671.692, 275 675.040 C 309.586 683.295, 441.074 714.555, 453.500 717.476 C 470.686 721.515, 522.744 733.925, 539.899 738.072 C 548.918 740.252, 556.476 741.857, 556.694 741.639 C 556.912 741.421, 555.224 735.900, 552.943 729.371 C 550.661 722.842, 545.959 709.175, 542.493 699 C 536.897 682.573, 528.230 657.536, 515.838 622 C 513.632 615.675, 509.217 602.850, 506.026 593.500 C 502.835 584.150, 493.829 558.050, 486.012 535.500 C 478.195 512.950, 470.263 490, 468.384 484.500 L 464.968 474.500 432.853 457 C 377.304 426.730, 367.903 421.595, 352 412.834 C 343.475 408.138, 332 401.910, 326.500 398.994 C 321 396.079, 316.050 393.365, 315.500 392.964 C 314.950 392.562, 299.650 384.142, 281.500 374.251 C 240.027 351.652, 199.359 329.380, 187 322.499 C 181.775 319.590, 171.650 314.084, 164.500 310.262 C 157.350 306.440, 135.300 294.424, 115.500 283.559 C 95.700 272.694, 76.237 262.017, 72.250 259.832 C 68.263 257.647, 65 256.306, 65 256.851 M 499.463 495.750 C 499.835 496.712, 502.529 504.475, 505.451 513 C 508.372 521.525, 518.055 549.650, 526.969 575.500 C 535.883 601.350, 545.422 629.025, 548.167 637 C 550.912 644.975, 556.783 661.850, 561.214 674.500 C 565.645 687.150, 569.846 699.300, 570.548 701.500 C 573.617 711.108, 585.880 745.907, 586.809 747.643 C 587.519 748.970, 590.224 750.105, 595.666 751.359 C 607.469 754.080, 670.975 769.172, 701 776.392 C 715.575 779.897, 736.275 784.841, 747 787.378 C 757.725 789.916, 781.800 795.617, 800.500 800.047 C 836.613 808.603, 876.811 817.992, 901.500 823.637 C 933.808 831.026, 974.400 840.335, 1016 849.896 C 1039.925 855.395, 1072.550 862.844, 1088.500 866.449 C 1104.450 870.054, 1124.025 874.568, 1132 876.481 C 1139.975 878.393, 1151.675 881.073, 1158 882.436 C 1164.325 883.799, 1179.400 887.210, 1191.500 890.017 C 1203.600 892.823, 1216.425 895.750, 1220 896.521 C 1223.575 897.292, 1231.112 899.013, 1236.750 900.346 C 1242.388 901.678, 1247 902.637, 1247 902.476 C 1247 902.315, 1235.862 896.114, 1222.250 888.695 C 1208.638 881.276, 1185.800 868.799, 1171.500 860.967 C 1139.398 843.386, 1127.991 837.162, 1112 828.503 C 1105.125 824.780, 1093.650 818.490, 1086.500 814.524 C 1079.350 810.559, 1069.900 805.374, 1065.500 803.002 C 1061.100 800.630, 1048.725 793.871, 1038 787.982 C 1027.275 782.093, 1008.825 771.974, 997 765.495 C 985.175 759.017, 971.225 751.359, 966 748.479 C 960.775 745.598, 938.500 733.456, 916.500 721.496 C 894.500 709.536, 869.975 696.137, 862 691.720 C 847.675 683.786, 737.393 623.460, 719 613.497 C 713.775 610.667, 704.550 605.634, 698.500 602.313 C 673.603 588.645, 588.717 542.253, 578.500 536.730 C 568.080 531.097, 548.048 520.122, 527 508.514 C 509.458 498.840, 500.302 494, 499.542 494 C 499.126 494, 499.091 494.788, 499.463 495.750 M 343.423 722.750 C 343.839 723.163, 360.001 739.697, 379.340 759.494 C 398.678 779.290, 424.206 805.390, 436.069 817.494 C 447.931 829.597, 465.031 847.137, 474.069 856.471 C 483.106 865.805, 494.100 877.075, 498.500 881.514 C 502.900 885.954, 508.313 891.654, 510.528 894.182 L 514.556 898.777 525.028 899.407 C 537.574 900.161, 653.707 903.850, 717 905.504 C 728.825 905.813, 752.225 906.495, 769 907.020 C 809.817 908.296, 828.632 908.844, 872.500 910.036 C 892.850 910.589, 930.875 911.701, 957 912.507 C 983.125 913.313, 1021.825 914.429, 1043 914.987 C 1064.175 915.546, 1094.325 916.436, 1110 916.967 C 1125.675 917.497, 1151.325 918.188, 1167 918.502 C 1182.675 918.815, 1197.750 919.331, 1200.500 919.649 C 1213.225 921.118, 1200.548 917.898, 1134.500 902.884 C 1114.603 898.361, 1081.189 890.749, 1067 887.508 C 1063.975 886.817, 1047.325 883.026, 1030 879.084 C 1012.675 875.142, 989.950 869.931, 979.500 867.502 C 963.032 863.676, 923.588 854.625, 870.500 842.490 C 862.250 840.604, 843.575 836.351, 829 833.038 C 814.425 829.725, 798.675 826.125, 794 825.039 C 784.814 822.905, 755.742 816.263, 742 813.160 C 727.433 809.870, 680.518 799.152, 657.500 793.857 C 645.400 791.073, 631.675 787.931, 627 786.875 C 622.325 785.819, 615.800 784.287, 612.500 783.470 C 605.605 781.765, 568.474 773.278, 562.500 772.043 C 560.300 771.588, 549.275 769.100, 538 766.514 C 495.028 756.659, 483.030 753.918, 468 750.523 C 459.475 748.597, 447.775 745.929, 442 744.594 C 430.580 741.954, 404.483 735.974, 380 730.386 C 371.475 728.441, 359.851 725.758, 354.170 724.425 C 342.726 721.739, 342.343 721.679, 343.423 722.750 M 1543.500 785.678 C 1542.400 785.965, 1540.600 786.992, 1539.500 787.961 C 1536.801 790.339, 1526.431 795.558, 1521.500 797.020 C 1519.300 797.673, 1514.350 800.035, 1510.500 802.269 C 1480.931 819.430, 1460.154 850.490, 1452.039 889.664 C 1442.772 934.400, 1451.181 988.376, 1474.759 1035.500 C 1481.809 1049.591, 1491.157 1065.556, 1497.009 1073.500 C 1501.846 1080.067, 1504 1084.340, 1504 1087.369 C 1504 1088.727, 1504.645 1091.112, 1505.434 1092.669 C 1506.222 1094.226, 1507.574 1097.525, 1508.439 1100 C 1510.415 1105.659, 1527.822 1128.923, 1541.269 1143.877 C 1582.254 1189.455, 1639.344 1227.289, 1667 1227.201 C 1675.536 1227.174, 1680.545 1228.377, 1683.643 1231.197 C 1684.822 1232.270, 1687.288 1233.902, 1689.123 1234.824 C 1690.958 1235.746, 1693.528 1238.075, 1694.834 1240 C 1697.156 1243.424, 1697.193 1243.824, 1696.538 1258.500 C 1696.170 1266.750, 1695.645 1274.963, 1695.372 1276.750 C 1695.100 1278.537, 1695.252 1280, 1695.712 1280 C 1696.799 1280, 1709.541 1266.930, 1719.598 1255.500 C 1730.655 1242.933, 1746.729 1221.278, 1754.443 1208.556 C 1764.423 1192.098, 1781.403 1158.015, 1778.830 1159.605 C 1778.231 1159.975, 1777.911 1159.878, 1778.120 1159.388 C 1783.120 1147.671, 1789.198 1130.791, 1790.503 1125 C 1792.319 1116.939, 1793.431 1113.370, 1797.492 1102.569 C 1805.699 1080.743, 1807.330 1028.634, 1800.907 993.500 C 1794.827 960.248, 1781.956 928.262, 1763.684 901 C 1745.042 873.186, 1717.954 846.764, 1690.249 829.370 C 1685.512 826.396, 1681.301 824.309, 1680.891 824.732 C 1680.481 825.154, 1680.001 831.503, 1679.823 838.839 C 1679.503 852.043, 1679.472 852.202, 1676.694 854.589 C 1672.719 858.005, 1668.798 857.737, 1665.505 853.824 L 1662.833 850.648 1663.541 832.494 L 1664.249 814.341 1652.636 809.229 C 1629.915 799.229, 1615.737 795.327, 1588.216 791.502 C 1574.622 789.613, 1560.575 787.561, 1557 786.943 C 1547.249 785.257, 1545.682 785.110, 1543.500 785.678 M 1270.500 791.623 C 1242.508 794.639, 1205.925 802.567, 1177 811.886 C 1158.523 817.839, 1152 820.083, 1152 820.488 C 1152 820.955, 1171.712 831.976, 1207.500 851.520 C 1216.300 856.326, 1225.750 861.492, 1228.500 863.001 C 1231.250 864.509, 1245.875 872.485, 1261 880.725 C 1284.621 893.593, 1296.701 900.199, 1325.500 916.002 C 1328.250 917.510, 1334.550 920.837, 1339.500 923.395 C 1346.210 926.862, 1349.240 929.089, 1351.407 932.151 C 1355.305 937.656, 1355.538 943.717, 1352 947.536 L 1349.500 950.234 1321.500 949.580 C 1306.100 949.220, 1280.900 948.510, 1265.500 948.003 C 1250.100 947.495, 1227.600 946.832, 1215.500 946.528 C 1203.400 946.225, 1188.100 945.749, 1181.500 945.471 C 1174.900 945.193, 1152.400 944.513, 1131.500 943.961 C 1110.600 943.409, 1079.775 942.528, 1063 942.005 C 1046.225 941.481, 1021.700 940.803, 1008.500 940.499 C 995.300 940.194, 982.150 939.730, 979.278 939.467 C 974.285 939.010, 973.989 939.121, 972.500 942 C 971.643 943.657, 963.378 952.547, 954.133 961.756 C 921.026 994.735, 897.931 1025.026, 879.321 1059.880 C 865.212 1086.305, 856.262 1111.325, 851.377 1138 C 848.839 1151.862, 848.835 1183.947, 851.371 1197.500 C 862.001 1254.322, 903.027 1295.388, 967.323 1313.563 C 974.375 1315.557, 980.284 1317.033, 980.452 1316.844 C 980.621 1316.655, 981.983 1314.065, 983.478 1311.089 C 986.589 1304.897, 994.110 1297.125, 999.436 1294.597 C 1006.346 1291.318, 1016.739 1293.131, 1024.892 1299.037 C 1030.515 1303.110, 1032.061 1306.618, 1032.165 1315.538 C 1032.248 1322.625, 1032.384 1323.058, 1034.711 1323.642 C 1038.127 1324.500, 1069.654 1323.167, 1086.306 1321.462 C 1113.549 1318.673, 1146.818 1311.819, 1173.500 1303.498 L 1184.500 1300.068 1187.773 1288.284 C 1189.573 1281.803, 1194.447 1263.900, 1198.604 1248.500 C 1202.761 1233.100, 1207.037 1217.350, 1208.105 1213.500 C 1209.174 1209.650, 1210.958 1202.900, 1212.069 1198.500 C 1213.181 1194.100, 1215.446 1186.371, 1217.103 1181.324 C 1219.633 1173.619, 1220.809 1171.509, 1224.443 1168.159 C 1231.110 1162.013, 1234.390 1160.667, 1241.190 1161.283 C 1252.069 1162.270, 1262.447 1170.520, 1265.072 1180.267 C 1266.613 1185.991, 1265.830 1190.641, 1259.452 1213.637 C 1256.422 1224.562, 1252.323 1239.350, 1250.344 1246.500 C 1248.365 1253.650, 1245.682 1263.292, 1244.382 1267.926 C 1243.082 1272.560, 1242.258 1276.592, 1242.552 1276.886 C 1243.162 1277.496, 1262.920 1267.824, 1280.148 1258.481 C 1300.428 1247.484, 1334.219 1226.019, 1344.249 1217.763 C 1347.067 1215.443, 1348.012 1212.262, 1362.018 1158 C 1367.562 1136.524, 1368.986 1132.725, 1372.891 1129 C 1376.763 1125.307, 1385.268 1122, 1390.895 1122 C 1400.796 1122, 1410.371 1128.168, 1413.601 1136.626 C 1415.164 1140.718, 1415.216 1142.033, 1414.085 1148.764 C 1413.388 1152.917, 1412.593 1157.031, 1412.320 1157.907 C 1411.111 1161.782, 1437.278 1131.684, 1450.023 1114.538 C 1458.637 1102.951, 1471 1084.147, 1471 1082.633 C 1471 1082.324, 1468.502 1077.951, 1465.450 1072.917 C 1449.822 1047.145, 1436.547 1014.951, 1429.610 986 C 1420.159 946.554, 1420.257 903.886, 1429.872 872.374 L 1431.742 866.247 1389.635 834.874 C 1366.476 817.618, 1344.635 801.063, 1341.100 798.085 C 1335.106 793.036, 1334.126 792.582, 1326.586 791.355 C 1316.185 789.663, 1287.413 789.801, 1270.500 791.623 M 1535.265 845.478 C 1513.972 851.472, 1500.203 869.464, 1495.416 897.545 C 1493.200 910.547, 1493.930 936.106, 1496.916 950.055 C 1505.523 990.258, 1524.146 1025.977, 1550.036 1051.936 C 1576.177 1078.145, 1603.593 1088.623, 1628 1081.729 C 1631.025 1080.874, 1635.750 1079.681, 1638.500 1079.077 C 1642.394 1078.222, 1644.404 1077.004, 1647.587 1073.573 C 1655.478 1065.066, 1657.582 1049.806, 1654.079 1026.500 C 1647.937 985.643, 1629.862 937.282, 1605.770 897.251 C 1590.444 871.785, 1581.755 862.106, 1559.872 846.124 C 1557.065 844.074, 1541.686 843.670, 1535.265 845.478 M 740.444 981.875 C 683.804 1004.852, 632.889 1037.266, 573.671 1088.047 C 571.273 1090.104, 593.408 1130.081, 614.895 1162.500 C 670.988 1247.131, 753.635 1336.434, 812.965 1376.522 C 824.455 1384.286, 844.783 1395, 848.023 1395 C 849.100 1395, 849.968 1393.965, 850.330 1392.250 C 851.612 1386.172, 857.287 1361.069, 864.970 1327.500 C 867.236 1317.600, 869.968 1305.295, 871.041 1300.156 L 872.993 1290.812 865.937 1283.156 C 842.998 1258.270, 828.268 1224.942, 824.495 1189.388 C 822.630 1171.815, 822.637 1165.716, 824.538 1149 C 827.860 1119.788, 835.154 1094.643, 849.485 1063 C 852.598 1056.125, 856.913 1047.295, 859.073 1043.377 C 861.233 1039.459, 863 1036.028, 863 1035.751 C 863 1035.188, 859.286 1032.995, 801.604 999.491 C 779.112 986.426, 759.987 975.561, 759.104 975.346 C 758.222 975.131, 749.825 978.069, 740.444 981.875 M 533.404 1126.250 C 489.179 1171.188, 454.700 1213.812, 415.691 1271.772 C 405.662 1286.673, 404.190 1289.369, 404.965 1291.409 C 406.870 1296.418, 417.992 1318.022, 422.555 1325.576 C 444.964 1362.676, 472.871 1397.525, 512.490 1437.884 C 555.300 1481.495, 599.671 1517.359, 641.500 1542.160 C 656.441 1551.019, 667.628 1557, 669.257 1557 C 670 1557, 672.158 1555.384, 674.054 1553.409 C 678.856 1548.405, 692.670 1538.199, 711.500 1525.742 C 720.300 1519.921, 729.075 1513.497, 731 1511.468 C 736.212 1505.972, 743.512 1500.809, 755.112 1494.414 C 760.825 1491.264, 768.272 1486.722, 771.659 1484.321 C 777.562 1480.136, 777.847 1479.736, 778.500 1474.727 C 781.819 1449.283, 785.097 1428.902, 786.338 1426 C 790.017 1417.394, 798.271 1409.532, 806.688 1406.619 L 810.350 1405.351 800.925 1399.018 C 755.896 1368.763, 694.911 1308.889, 644.557 1245.499 C 631.602 1229.189, 630.507 1227.790, 625.376 1221 C 599.431 1186.659, 574.173 1147.515, 559.818 1119.399 C 556.343 1112.593, 553.241 1107.018, 552.924 1107.012 C 552.607 1107.005, 543.823 1115.662, 533.404 1126.250 M 374.484 1338.703 C 336.951 1404.696, 303.455 1481.518, 281.077 1552.925 C 276.522 1567.459, 275.504 1571.835, 276.359 1573.204 C 278.151 1576.073, 289.851 1584.499, 300.101 1590.301 C 334.887 1609.994, 384.132 1628.504, 431 1639.505 C 468.008 1648.191, 492.062 1651.723, 520.500 1652.649 C 530.950 1652.989, 540.299 1653.679, 541.275 1654.182 C 542.636 1654.884, 546.233 1653.321, 556.671 1647.495 C 570.329 1639.872, 574.363 1637.073, 592 1622.985 C 597.225 1618.812, 611.400 1608.123, 623.500 1599.232 C 635.600 1590.340, 647.031 1581.787, 648.901 1580.225 L 652.303 1577.384 639.901 1570.540 C 578.401 1536.600, 503.039 1471.194, 448.013 1404 C 425.253 1376.206, 410.427 1355.086, 396.085 1330.023 C 392.158 1323.160, 388.597 1317.197, 388.171 1316.771 C 387.746 1316.346, 381.586 1326.215, 374.484 1338.703 M 906.559 1317.905 C 904.735 1320.855, 884.745 1384.758, 883.389 1391.972 C 882.513 1396.632, 880.942 1402.611, 879.898 1405.259 C 877.139 1412.259, 877.171 1412.307, 884.250 1411.741 C 890.584 1411.235, 924.096 1412.490, 931.576 1413.513 L 935.652 1414.070 939.436 1405.785 C 941.517 1401.228, 944.719 1394.350, 946.550 1390.500 C 955.433 1371.823, 969 1342.194, 969 1341.469 C 969 1341.298, 967.538 1340.849, 965.750 1340.470 C 954.056 1337.990, 931.524 1329.374, 916.500 1321.637 C 912.100 1319.372, 908.204 1317.378, 907.842 1317.206 C 907.480 1317.035, 906.902 1317.349, 906.559 1317.905 M 262.551 1619.003 C 252.306 1661.115, 244.428 1706.175, 240.085 1747.500 C 238.328 1764.224, 235.914 1810.002, 236.790 1810 C 236.950 1810, 243.309 1805.162, 250.922 1799.250 C 258.535 1793.338, 272.641 1782.457, 282.268 1775.072 C 295.361 1765.027, 300.174 1760.743, 301.367 1758.072 C 303.707 1752.827, 308.004 1750.584, 322.500 1747.038 C 368.088 1735.886, 428.069 1713.123, 481.500 1686.697 C 489.200 1682.889, 496.625 1679.302, 498 1678.726 C 500.787 1677.559, 502.010 1677.824, 478 1674.396 C 421.183 1666.285, 352.674 1645.330, 304.927 1621.458 C 292.618 1615.304, 275.854 1605.594, 271.115 1601.873 C 269.803 1600.843, 268.380 1600, 267.952 1600 C 267.524 1600, 265.094 1608.552, 262.551 1619.003" stroke="none" fill="#ffffff" fill-rule="evenodd"/>
	<path fill-opacity="0.995" d="M 376.213 99.139 C 372.629 101.433, 370 105.645, 370 109.090 C 370 111.821, 377.156 132.881, 427.052 277 C 431.907 291.025, 442.211 320.950, 449.949 343.500 C 457.687 366.050, 466.248 390.800, 468.974 398.500 C 473.483 411.238, 474.949 416.249, 476.498 424.230 C 476.789 425.731, 478.959 429.331, 481.320 432.230 C 485.078 436.846, 486.163 437.565, 490.056 438.024 C 493.247 438.400, 500.845 442.035, 517 450.911 C 529.375 457.711, 540.534 463.912, 541.797 464.691 C 544.512 466.365, 581.342 486.899, 602 498.255 C 609.975 502.640, 618.975 507.692, 622 509.483 C 625.025 511.275, 638.525 518.814, 652 526.238 C 665.475 533.662, 687.975 546.159, 702 554.010 C 716.025 561.861, 747.525 579.422, 772 593.035 C 796.475 606.647, 832.025 626.446, 851 637.032 C 869.975 647.617, 893.825 660.877, 904 666.498 C 914.175 672.119, 933.975 683.141, 948 690.992 C 962.025 698.843, 977.775 707.614, 983 710.484 C 993.569 716.289, 1025.667 734.165, 1036.500 740.279 C 1040.350 742.451, 1052.275 749.081, 1063 755.012 C 1083.382 766.284, 1087.742 768.714, 1110.189 781.315 C 1117.718 785.542, 1124.327 789, 1124.876 789 C 1126.415 789, 1143.018 778.351, 1142.416 777.750 C 1142.124 777.458, 1144.274 776.763, 1147.193 776.206 C 1150.112 775.650, 1155.875 773.819, 1160 772.139 C 1164.125 770.458, 1168.809 768.813, 1170.409 768.483 C 1172.009 768.152, 1174.821 766.379, 1176.659 764.541 C 1179.469 761.731, 1180 760.476, 1180 756.647 C 1180 750.741, 1178.570 747.756, 1174.665 745.512 C 1172.924 744.511, 1167.293 740.274, 1162.152 736.096 C 1157.010 731.918, 1151.385 727.376, 1149.652 726.003 C 1147.918 724.630, 1139.975 718.088, 1132 711.466 C 1124.025 704.844, 1108.725 692.255, 1098 683.491 C 1087.275 674.728, 1070.617 661.019, 1060.982 653.029 C 1051.347 645.038, 1038.747 634.696, 1032.982 630.047 C 1027.217 625.397, 1019.800 619.281, 1016.500 616.455 C 1013.200 613.629, 1004.425 606.419, 997 600.432 C 989.575 594.445, 979.180 585.936, 973.899 581.523 C 961.614 571.256, 951.786 563.163, 906.500 526.020 C 886.150 509.329, 866.125 492.874, 862 489.452 C 857.875 486.031, 847.300 477.305, 838.500 470.061 C 829.700 462.816, 818 453.181, 812.500 448.648 C 807 444.116, 795.975 435.046, 788 428.493 C 769.636 413.403, 752.248 399.082, 744.381 392.567 C 741.015 389.780, 731.407 381.875, 723.029 375 C 714.650 368.125, 702.058 357.775, 695.045 352 C 688.032 346.225, 676.511 336.775, 669.442 331 C 662.374 325.225, 651.170 315.994, 644.545 310.488 C 633.372 301.200, 620.824 290.884, 579.500 257.011 C 570.700 249.798, 559 240.189, 553.500 235.659 C 548 231.129, 537.650 222.622, 530.500 216.755 C 523.350 210.887, 506.435 196.955, 492.911 185.793 C 479.387 174.632, 461.179 159.650, 452.448 152.500 C 409.073 116.980, 396.244 106.200, 391.455 101.250 C 387.982 97.660, 386.734 97.003, 383.421 97.017 C 381.168 97.027, 378.102 97.929, 376.213 99.139 M 35.256 211.048 C 30.970 211.969, 29.339 213.442, 27.951 217.648 C 25.945 223.727, 26.633 227.057, 34.018 247.004 C 37.988 257.727, 44.068 274.150, 47.529 283.500 C 50.989 292.850, 56.368 307.475, 59.482 316 C 64.994 331.094, 73.231 353.409, 77.015 363.500 C 80.175 371.926, 88.394 394.266, 97.986 420.500 C 103.014 434.250, 109.819 452.700, 113.110 461.500 C 131.014 509.387, 146.519 553.420, 166.496 613.119 C 178.757 649.759, 189.298 680.687, 189.919 681.848 C 190.540 683.008, 193.850 685.867, 197.274 688.200 C 203.109 692.175, 203.971 692.454, 211 692.642 C 216.344 692.784, 229.710 695.433, 257.500 701.858 L 296.500 710.874 305.877 720.687 C 311.034 726.084, 323.634 739.054, 333.877 749.509 C 365.050 781.329, 427.169 845.878, 476.054 897.248 C 497.163 919.431, 503.065 925.086, 505.479 925.445 C 507.141 925.692, 519.300 926.140, 532.500 926.442 C 545.700 926.744, 579.225 927.651, 607 928.457 C 634.775 929.264, 666.050 930.171, 676.500 930.472 C 686.950 930.774, 702.475 931.255, 711 931.541 C 719.525 931.828, 750.125 932.726, 779 933.537 C 929.009 937.750, 938 938.060, 938 939.019 C 938 939.434, 933.163 944.674, 927.250 950.664 C 909.214 968.937, 895.261 986.010, 882.024 1006 C 878.564 1011.225, 875.375 1015.895, 874.938 1016.379 C 873.475 1017.995, 851.097 1004.444, 810.250 977.206 C 794.162 966.479, 781 957.078, 781 956.316 C 781 952.006, 772.990 945.987, 767.290 946.013 C 759.843 946.047, 723.377 960.523, 694.275 974.997 C 651.038 996.502, 601.081 1029.179, 557.500 1064.463 C 554.750 1066.689, 551.294 1069.408, 549.821 1070.505 C 542.725 1075.788, 509.469 1106.538, 492.503 1123.504 C 410.629 1205.379, 341.346 1305.598, 293.751 1411 C 282.357 1436.234, 280.269 1441.115, 273.651 1458 C 245.117 1530.804, 226.560 1602.651, 217.603 1675 C 214.252 1702.074, 212.082 1742.178, 210.327 1809.500 C 209.548 1839.375, 210.142 1841.431, 222.116 1850.346 C 228.686 1855.237, 231.720 1855.679, 236.491 1852.442 C 238.624 1850.994, 249.119 1841.640, 259.812 1831.655 C 314.305 1780.770, 314.416 1780.699, 345.500 1777.061 C 374.400 1773.679, 415.194 1758.286, 466.988 1731.222 C 477.169 1725.901, 489.284 1719.781, 493.909 1717.622 C 498.534 1715.462, 506.184 1711.141, 510.909 1708.019 C 515.634 1704.897, 527.600 1697.480, 537.500 1691.536 C 547.400 1685.593, 558.425 1678.842, 562 1676.534 C 593.538 1656.178, 613.004 1643.744, 627 1635.016 C 673.562 1605.979, 718.178 1574.535, 756.500 1543.748 C 771.883 1531.390, 771.273 1530.932, 768.126 1552.471 C 765.851 1568.036, 764.536 1577.376, 762.418 1593 C 761.635 1598.775, 760.561 1605.975, 760.031 1609 C 759.501 1612.025, 758.133 1621.700, 756.992 1630.500 C 755.851 1639.300, 754.259 1650.775, 753.453 1656 C 751.417 1669.209, 749.203 1684.922, 746.941 1702.205 C 745.882 1710.293, 743.393 1728.068, 741.408 1741.705 C 739.424 1755.342, 737.338 1770.550, 736.773 1775.500 C 736.208 1780.450, 734.789 1790.575, 733.620 1798 L 731.495 1811.500 697.296 1828.500 C 678.486 1837.850, 642.262 1855.826, 616.798 1868.447 C 591.334 1881.067, 570.200 1891.867, 569.832 1892.447 C 569.465 1893.026, 563.615 1901.018, 556.832 1910.206 C 544.886 1926.390, 531.301 1949.060, 532.442 1950.907 C 533.448 1952.534, 542.248 1955, 547.047 1955 C 550.919 1955, 554.683 1953.537, 568.619 1946.616 C 577.903 1942.005, 599.675 1931.254, 617 1922.725 C 753.730 1855.411, 753.665 1855.445, 756.930 1850.938 C 758.619 1848.607, 759.996 1846.205, 759.991 1845.600 C 759.986 1844.995, 761.298 1843.375, 762.906 1842 C 765.280 1839.971, 766.717 1836.674, 770.534 1824.500 C 773.121 1816.250, 776.055 1808.600, 777.054 1807.500 C 778.781 1805.598, 782.617 1785.615, 784.540 1768.500 C 784.910 1765.200, 786.990 1750.350, 789.160 1735.500 C 791.331 1720.650, 793.745 1703.550, 794.526 1697.500 C 795.307 1691.450, 796.610 1682, 797.422 1676.500 C 798.233 1671, 799.402 1662.675, 800.019 1658 C 800.636 1653.325, 801.998 1643.425, 803.046 1636 C 804.094 1628.575, 805.880 1615.525, 807.016 1607 C 808.151 1598.475, 809.502 1588.800, 810.017 1585.500 C 810.976 1579.361, 812.608 1567.798, 820.178 1513.503 L 824.500 1482.507 831.033 1475.503 C 834.626 1471.652, 839.987 1465.653, 842.947 1462.174 L 848.329 1455.849 854.914 1456.319 C 858.537 1456.578, 865.775 1457.272, 871 1457.861 C 886.841 1459.648, 941.161 1463.176, 943.559 1462.575 C 944.794 1462.265, 948.660 1459.188, 952.152 1455.737 C 955.643 1452.287, 963.857 1444.747, 970.404 1438.982 C 976.951 1433.217, 982.680 1427.825, 983.134 1427 C 983.589 1426.175, 986.679 1419.650, 990.002 1412.500 C 993.325 1405.350, 997.654 1396.125, 999.623 1392 C 1001.593 1387.875, 1006.916 1376.625, 1011.452 1367 L 1019.701 1349.500 1039.600 1349.832 C 1077.924 1350.472, 1123.391 1344.477, 1163.402 1333.508 C 1170.499 1331.563, 1176.413 1330.090, 1176.544 1330.236 C 1176.676 1330.381, 1174.154 1339.950, 1170.939 1351.500 C 1167.723 1363.050, 1164.185 1375.875, 1163.075 1380 C 1161.965 1384.125, 1158.321 1397.400, 1154.977 1409.500 C 1151.633 1421.600, 1147.370 1437.125, 1145.505 1444 C 1139.338 1466.730, 1132.920 1490.238, 1127.487 1510 C 1122.646 1527.606, 1120.369 1535.957, 1110.855 1571 C 1103.968 1596.364, 1100.817 1607.669, 1099.986 1610 C 1099.495 1611.375, 1098.630 1614.319, 1098.064 1616.541 C 1097.179 1620.020, 1094.016 1623.428, 1075.333 1641.041 C 1063.396 1652.294, 1052.021 1663.075, 1050.053 1665 C 1048.086 1666.925, 1029.741 1684.405, 1009.285 1703.844 C 980.044 1731.632, 971.841 1739.969, 970.913 1742.844 C 966.507 1756.498, 949.906 1794.882, 945.515 1801.569 C 944.407 1803.257, 941.722 1808.320, 939.550 1812.819 C 936.650 1818.825, 935.895 1821.295, 936.712 1822.112 C 938.581 1823.981, 950.034 1823.654, 954.222 1821.613 C 956.269 1820.615, 965.350 1812.756, 974.401 1804.149 C 983.453 1795.542, 1003.828 1776.177, 1019.679 1761.116 C 1035.531 1746.054, 1060.200 1722.613, 1074.500 1709.024 C 1088.800 1695.435, 1105.362 1679.858, 1111.304 1674.409 L 1122.108 1664.500 1128.965 1650.500 C 1132.735 1642.800, 1138.392 1629.075, 1141.534 1620 C 1147.644 1602.352, 1152.544 1590.853, 1156.058 1585.918 C 1157.256 1584.236, 1159.724 1577.064, 1161.542 1569.980 C 1163.361 1562.896, 1166.060 1553.140, 1167.540 1548.300 C 1169.021 1543.460, 1172.182 1532.075, 1174.566 1523 C 1176.951 1513.925, 1179.557 1504.250, 1180.359 1501.500 C 1181.161 1498.750, 1182.952 1492.225, 1184.339 1487 C 1189.125 1468.967, 1194.991 1447.478, 1197.031 1440.500 C 1198.157 1436.650, 1202.216 1421.800, 1206.052 1407.500 C 1209.888 1393.200, 1215.549 1372.275, 1218.631 1361 C 1221.714 1349.725, 1225.495 1335.725, 1227.034 1329.888 C 1231.291 1313.740, 1232.510 1310.634, 1235.132 1309.254 C 1236.434 1308.568, 1242.225 1305.919, 1248 1303.366 C 1272.523 1292.524, 1294.316 1281.821, 1301.340 1277.170 C 1317.021 1266.786, 1336.133 1254.800, 1336.465 1255.143 C 1336.655 1255.339, 1336 1258.650, 1335.010 1262.500 C 1333.229 1269.423, 1315.602 1336.946, 1312.570 1348.460 C 1311.706 1351.738, 1311 1356.109, 1311 1358.173 C 1311 1363.896, 1314.635 1372.514, 1318.302 1375.484 C 1320.061 1376.909, 1323.728 1379.913, 1326.452 1382.160 C 1333.629 1388.079, 1339.291 1390.273, 1346 1389.734 C 1350.667 1389.358, 1354.530 1387.656, 1371.500 1378.498 C 1400.026 1363.103, 1421.289 1351.951, 1421.554 1352.246 C 1421.772 1352.489, 1399.678 1385.593, 1374.820 1422.267 C 1368.396 1431.745, 1356.898 1448.725, 1349.269 1460 C 1341.640 1471.275, 1330.965 1487.025, 1325.546 1495 C 1320.128 1502.975, 1308.360 1520.390, 1299.395 1533.700 L 1283.096 1557.899 1274.938 1578.700 C 1263.428 1608.048, 1261.666 1612.831, 1253.468 1637 C 1244.958 1662.084, 1244.889 1661.485, 1256.229 1660.722 C 1261.620 1660.360, 1264.066 1659.598, 1268.535 1656.890 C 1271.602 1655.031, 1274.946 1652.607, 1275.966 1651.505 C 1276.985 1650.402, 1284.756 1639.150, 1293.235 1626.500 C 1309.389 1602.396, 1330.249 1571.467, 1343.478 1552 C 1355.163 1534.807, 1390.585 1482.382, 1418.478 1441 C 1427.191 1428.075, 1438.001 1412.100, 1442.502 1405.500 C 1451.525 1392.270, 1461 1376.559, 1461 1374.827 C 1461 1372.861, 1474.093 1348.964, 1476.971 1345.677 C 1478.501 1343.930, 1481.618 1338.114, 1483.897 1332.754 C 1488.145 1322.760, 1493.397 1303.134, 1492.447 1300.804 C 1489.230 1292.917, 1466.462 1292.770, 1439.984 1300.464 C 1433.292 1302.409, 1425.827 1304, 1423.395 1304 C 1414.381 1304, 1392.343 1312.622, 1373.698 1323.442 C 1371.057 1324.975, 1368.728 1326.061, 1368.523 1325.856 C 1368.148 1325.482, 1371.168 1313.320, 1379.038 1283.500 C 1389.526 1243.768, 1392.184 1233.629, 1395.494 1220.748 L 1399.027 1206.995 1407.263 1199.319 C 1434.546 1173.892, 1459.412 1145.846, 1476.487 1121.241 L 1484.301 1109.981 1492.795 1122.741 C 1510.734 1149.689, 1536.086 1177.347, 1565.404 1201.954 C 1587.917 1220.851, 1614.009 1237.934, 1630.529 1244.596 C 1639.621 1248.262, 1655.538 1252.330, 1665.250 1253.469 C 1670.277 1254.059, 1671.002 1254.418, 1671.015 1256.322 C 1671.023 1257.520, 1670.496 1266.915, 1669.842 1277.201 C 1668.492 1298.451, 1668.944 1301.513, 1674.222 1306.862 C 1680.060 1312.780, 1691.899 1315.655, 1697.820 1312.593 C 1702.008 1310.427, 1730.811 1281.773, 1741.137 1269.500 C 1763.772 1242.597, 1784.966 1210.400, 1796.756 1185.006 C 1807.736 1161.357, 1814.833 1142.023, 1820.552 1120.179 C 1841.417 1040.486, 1831.186 961.652, 1791.418 895.686 C 1788.405 890.688, 1786.131 886.101, 1786.364 885.493 C 1786.598 884.884, 1796.624 873.684, 1808.645 860.604 C 1820.665 847.525, 1830.645 836.188, 1830.823 835.412 C 1831.924 830.605, 1851.525 840.822, 1870.474 856.079 C 1921.255 896.969, 1984.607 985.935, 1999.470 1037.228 C 2001.276 1043.465, 2004.616 1047, 2008.701 1047 C 2012.371 1047, 2014.672 1045.379, 2015.867 1041.952 C 2016.773 1039.352, 2016.462 1037.406, 2013.900 1029.681 C 2001.609 992.615, 1971.277 942.888, 1933.577 898 C 1929.189 892.775, 1925.349 888.275, 1925.045 888 C 1924.740 887.725, 1920.893 883.489, 1916.495 878.586 C 1905.904 866.779, 1885.030 847.654, 1872 837.818 C 1859.923 828.702, 1844.194 820.486, 1835.500 818.752 C 1832.200 818.094, 1829.235 817.183, 1828.911 816.729 C 1828.587 816.274, 1816.730 828.524, 1802.563 843.951 C 1788.395 859.378, 1776.478 872, 1776.079 872 C 1775.680 872, 1772.011 868.066, 1767.927 863.258 C 1755.903 849.104, 1747.220 840.348, 1736.024 831.086 C 1719.597 817.496, 1711.342 811.866, 1686.102 797.040 L 1681.704 794.456 1681.885 785.478 C 1682.121 773.808, 1684.785 708.756, 1685.618 694.328 L 1686.262 683.155 1691.881 680.666 C 1699.274 677.390, 1708.746 674.564, 1718 672.871 C 1728.055 671.033, 1772.143 671.004, 1784.500 672.829 C 1848.244 682.239, 1905.532 704.148, 1944 733.826 C 1959.091 745.470, 1970.693 758.535, 1975.408 769.197 C 1979.343 778.093, 1985.668 780.781, 1989.927 775.365 C 1992.843 771.659, 1992.519 767.980, 1988.590 760.179 C 1967.935 719.163, 1892.685 676.927, 1812 661.063 C 1791.971 657.125, 1780.385 655.893, 1757.882 655.308 C 1715.363 654.202, 1688.181 660.387, 1672.354 674.768 C 1669.746 677.138, 1669.707 677.661, 1667.432 741 C 1666.533 766.025, 1665.717 786.589, 1665.619 786.697 C 1665.520 786.805, 1659.112 784.454, 1651.377 781.472 C 1619.067 769.017, 1576.058 759.974, 1547.500 759.632 C 1537.774 759.515, 1535.632 759.820, 1529 762.261 C 1524.875 763.780, 1519.250 766.797, 1516.500 768.966 C 1513.750 771.135, 1508.575 774.556, 1505 776.569 C 1490.693 784.623, 1481.131 791.785, 1470.434 802.458 C 1459.856 813.013, 1448.973 827.561, 1444.385 837.280 C 1443.404 839.360, 1442.128 840.878, 1441.550 840.654 C 1439.215 839.750, 1359.368 779.439, 1357.677 777.302 C 1345.728 762.203, 1284.400 759.783, 1211.179 771.520 C 1190.299 774.868, 1159.568 783.407, 1146.095 789.606 C 1137.590 793.519, 1130.583 798.898, 1127.762 803.678 L 1125.808 806.991 1119.654 803.608 C 1116.269 801.748, 1093.025 789.104, 1068 775.511 C 1042.975 761.917, 1018.675 748.641, 1014 746.008 C 1006.603 741.843, 990.132 732.849, 965.500 719.524 C 953.499 713.032, 947.867 709.911, 936.321 703.351 C 930.173 699.858, 924.926 697, 924.661 697 C 924.396 697, 921.101 695.260, 917.340 693.133 C 913.578 691.007, 905.100 686.344, 898.500 682.771 C 891.900 679.199, 872.325 668.505, 855 659.008 C 837.675 649.510, 814.050 636.560, 802.500 630.228 C 790.950 623.897, 776.775 616.157, 771 613.028 C 765.225 609.899, 758.025 605.973, 755 604.303 C 751.975 602.634, 746.350 599.578, 742.500 597.513 C 738.650 595.448, 724.025 587.461, 710 579.764 C 695.975 572.067, 676.625 561.488, 667 556.256 C 657.375 551.024, 645.675 544.590, 641 541.959 C 636.325 539.327, 627.550 534.502, 621.500 531.235 C 615.450 527.969, 595.875 517.294, 578 507.513 C 546.219 490.123, 530.396 481.487, 497 463.304 C 487.925 458.363, 473.300 450.363, 464.500 445.526 C 440.333 432.243, 399.335 409.766, 392 405.778 C 385.775 402.393, 368.862 393.145, 322 367.503 C 310.175 361.032, 293.525 351.900, 285 347.210 C 276.475 342.519, 261.850 334.543, 252.500 329.484 C 243.150 324.426, 221.325 312.505, 204 302.994 C 186.675 293.482, 167.325 282.885, 161 279.444 C 76.934 233.712, 50.544 218.950, 49.556 217.105 C 47.146 212.602, 40.711 209.877, 35.256 211.048 M 64 255.491 C 64 255.746, 65.161 259.002, 66.581 262.727 C 68 266.452, 71.200 275.125, 73.691 282 C 80.188 299.931, 83.236 308.224, 87.289 319 C 89.254 324.225, 93.988 337.050, 97.810 347.500 C 106.503 371.272, 120.548 409.492, 129.963 435 C 133.922 445.725, 138.296 457.650, 139.684 461.500 C 141.071 465.350, 144.009 473.225, 146.214 479 C 148.419 484.775, 152.588 496.025, 155.480 504 C 164.220 528.103, 182.187 576.848, 199.524 623.500 C 203.204 633.400, 207.555 645.325, 209.194 650 C 210.834 654.675, 212.712 659.060, 213.368 659.745 C 214.024 660.429, 225.797 663.636, 239.530 666.870 C 266.399 673.197, 390.203 702.657, 416.500 708.980 C 495.584 727.995, 556.198 742.135, 556.658 741.675 C 556.965 741.369, 555.405 735.804, 553.192 729.309 C 547.791 713.455, 539.059 688.087, 534.155 674 C 531.953 667.675, 526.110 650.800, 521.172 636.500 C 516.233 622.200, 503.329 584.850, 492.497 553.500 C 481.664 522.150, 471.215 491.775, 469.277 486 C 467.339 480.225, 465.246 474.994, 464.627 474.375 C 464.007 473.757, 452.475 467.265, 439 459.948 C 425.525 452.632, 398.075 437.661, 378 426.679 C 341.318 406.612, 322.816 396.516, 292.750 380.160 C 269.764 367.656, 245.199 354.164, 240.500 351.463 C 238.300 350.198, 226.150 343.565, 213.500 336.723 C 189.274 323.619, 115.259 283.160, 91.500 270.034 C 70.101 258.211, 64 254.985, 64 255.491 M 499.124 495.750 C 500.140 498.351, 514.258 539.210, 527.026 576.500 C 530.228 585.850, 540.787 616.450, 550.491 644.500 C 560.195 672.550, 572.146 707.175, 577.049 721.446 C 581.951 735.716, 586.533 747.941, 587.231 748.613 C 588.659 749.988, 592.531 750.959, 666.500 768.485 C 695.650 775.392, 724.188 782.191, 729.919 783.594 C 735.649 784.997, 753.424 789.213, 769.419 792.963 C 785.413 796.714, 814.025 803.427, 833 807.883 C 901.133 823.881, 908.739 825.649, 947 834.392 C 962.675 837.973, 992.150 844.715, 1012.500 849.374 C 1032.850 854.032, 1058.725 859.929, 1070 862.478 C 1081.275 865.027, 1097.025 868.630, 1105 870.484 C 1150.315 881.021, 1181.251 888.096, 1227.930 898.601 C 1238.617 901.006, 1247.486 902.848, 1247.639 902.694 C 1247.887 902.447, 1230.076 892.537, 1205 878.969 C 1195.150 873.640, 1167.175 858.329, 1104.500 823.965 C 1090.200 816.125, 1073.325 806.905, 1067 803.476 C 1054.351 796.620, 1029.995 783.302, 982 756.994 C 964.675 747.498, 918.775 722.393, 880 701.205 C 841.225 680.017, 790.600 652.343, 767.500 639.707 C 744.400 627.071, 698.725 602.095, 666 584.204 C 633.275 566.313, 592.550 544.033, 575.500 534.693 C 511.264 499.503, 499.269 493, 498.595 493 C 498.295 493, 498.533 494.238, 499.124 495.750 M 350.500 730.141 C 354.900 734.737, 368.644 748.848, 381.041 761.499 C 411.223 792.296, 480.881 863.737, 499.510 883 C 512.720 896.659, 514.975 898.580, 518.500 899.177 C 522.926 899.925, 585.698 902.117, 671 904.501 C 681.725 904.800, 712.325 905.703, 739 906.506 C 765.675 907.309, 804.150 908.421, 824.500 908.977 C 844.850 909.533, 876.575 910.441, 895 910.995 C 913.425 911.549, 943.800 912.462, 962.500 913.025 C 1011.691 914.506, 1059.328 915.868, 1084 916.498 C 1095.825 916.800, 1118.325 917.469, 1134 917.984 C 1174.661 919.320, 1208.666 920.028, 1207.500 919.514 C 1206.950 919.272, 1197.500 917.049, 1186.500 914.576 C 1175.500 912.102, 1159.796 908.473, 1151.603 906.511 C 1143.409 904.549, 1131.709 901.845, 1125.603 900.502 C 1114.249 898.005, 1101.604 895.131, 1062 886.047 C 1049.625 883.209, 1024.875 877.560, 1007 873.494 C 953.060 861.225, 927.482 855.351, 907 850.530 C 896.275 848.005, 883.450 845.080, 878.500 844.030 C 873.550 842.979, 862.525 840.493, 854 838.505 C 845.475 836.518, 826.575 832.180, 812 828.867 C 777.261 820.971, 778.947 821.356, 738.500 812.046 C 719.250 807.615, 695.625 802.206, 686 800.026 C 676.375 797.845, 658.600 793.782, 646.500 790.996 C 634.400 788.210, 617.750 784.390, 609.500 782.508 C 601.250 780.625, 584.600 776.799, 572.500 774.005 C 560.400 771.212, 543.525 767.374, 535 765.477 C 526.475 763.579, 510.725 759.981, 500 757.481 C 489.275 754.980, 470.600 750.701, 458.500 747.972 C 446.400 745.242, 429.525 741.408, 421 739.451 C 412.475 737.493, 400.775 734.815, 395 733.498 C 389.225 732.181, 376.400 729.223, 366.500 726.924 C 339.582 720.674, 341.137 720.361, 350.500 730.141 M 1538.785 787.868 C 1535.132 791.057, 1525.887 796, 1523.574 796 C 1521.175 796, 1506.018 804.165, 1499.612 808.907 C 1477.764 825.083, 1460.827 852.260, 1453.123 883.500 C 1449.447 898.406, 1448.565 907.096, 1448.556 928.500 C 1448.546 951.993, 1449.839 962.397, 1455.515 984.500 C 1460.462 1003.768, 1465.230 1016.657, 1474.010 1034.500 C 1481.448 1049.617, 1492.987 1069.257, 1498.979 1077 C 1501.953 1080.842, 1504 1086, 1504 1089.649 C 1504 1090.942, 1504.405 1092, 1504.900 1092 C 1505.395 1092, 1506.348 1094.283, 1507.018 1097.074 C 1507.899 1100.746, 1510.586 1105.376, 1516.740 1113.824 C 1553.557 1164.367, 1606.968 1208.736, 1650 1224.524 C 1656.970 1227.081, 1661.202 1227.639, 1676 1227.954 C 1677.375 1227.984, 1680.026 1229.018, 1681.891 1230.254 C 1683.756 1231.489, 1686.906 1233.415, 1688.891 1234.533 C 1691.083 1235.768, 1693.409 1238.320, 1694.816 1241.033 C 1697.281 1245.785, 1697.304 1247.140, 1695.371 1273.500 L 1694.784 1281.500 1703.463 1273 C 1722.017 1254.827, 1742.468 1228.993, 1755.211 1207.631 C 1764.473 1192.102, 1778.948 1163.160, 1779.455 1159.156 C 1779.655 1157.576, 1781.837 1151.157, 1784.304 1144.892 C 1786.771 1138.626, 1789.767 1129.225, 1790.962 1124 C 1792.157 1118.775, 1793.832 1112.700, 1794.684 1110.500 C 1795.537 1108.300, 1797.258 1103.800, 1798.510 1100.500 C 1803.357 1087.720, 1806.567 1050.790, 1804.943 1026.500 C 1802.357 987.835, 1795.590 961.446, 1780.066 929.500 C 1762.643 893.643, 1739.201 865.128, 1707.190 840.850 C 1698.377 834.166, 1680.948 822.693, 1680.444 823.245 C 1680.315 823.385, 1679.998 829.676, 1679.737 837.224 C 1679.212 852.483, 1678.221 855.353, 1673.093 856.480 C 1669.422 857.286, 1666.457 855.794, 1664.628 852.220 C 1663.514 850.043, 1663.373 846.104, 1663.924 832.500 C 1664.388 821.030, 1664.269 815.125, 1663.556 814.347 C 1661.776 812.404, 1640.232 803.499, 1626.556 799.054 C 1615.875 795.582, 1609.321 794.251, 1589.056 791.438 C 1575.550 789.563, 1560.819 787.347, 1556.320 786.514 C 1544.739 784.370, 1542.602 784.535, 1538.785 787.868 M 1278.500 790.567 C 1277.400 790.729, 1271.550 791.386, 1265.500 792.027 C 1240.293 794.699, 1202.130 803.312, 1172.653 812.981 C 1163.936 815.839, 1155.453 818.747, 1153.801 819.442 L 1150.796 820.705 1163.148 827.487 C 1169.942 831.217, 1189.675 842.023, 1207 851.501 C 1224.325 860.979, 1240.525 869.869, 1243 871.256 C 1245.475 872.643, 1252.900 876.678, 1259.500 880.223 C 1272.689 887.307, 1296.014 900.039, 1320.056 913.277 C 1328.612 917.988, 1338.206 923.070, 1341.375 924.571 C 1352.703 929.934, 1357.684 941.407, 1351.408 947.683 L 1348.816 950.275 1327.158 949.627 C 1315.246 949.271, 1298.750 948.741, 1290.500 948.449 C 1273.554 947.849, 1117.913 943.359, 1085 942.521 C 1073.175 942.219, 1059 941.761, 1053.500 941.503 C 1048 941.244, 1032.700 940.795, 1019.500 940.505 C 1006.300 940.215, 990.456 939.715, 984.292 939.393 L 973.084 938.808 971.792 941.884 C 971.081 943.576, 961.500 954.091, 950.500 965.250 C 917.132 999.100, 894.435 1029.530, 876.732 1064.151 C 848.590 1119.190, 841.426 1172.573, 856.171 1217.369 C 869.770 1258.680, 903.643 1291.366, 950.598 1308.487 C 959.415 1311.701, 977.634 1317, 979.871 1317 C 980.476 1317, 982.281 1314.405, 983.882 1311.234 C 987.117 1304.824, 995.202 1296.649, 1000.489 1294.440 C 1005.265 1292.445, 1009.959 1292.638, 1016.544 1295.103 C 1023.162 1297.578, 1028.761 1302.183, 1030.649 1306.702 C 1031.392 1308.481, 1032 1313.100, 1032 1316.968 L 1032 1324 1045.250 1323.990 C 1086.357 1323.959, 1132.893 1316.545, 1175.493 1303.239 L 1184.486 1300.431 1189.159 1283.965 C 1191.730 1274.909, 1195.413 1261.650, 1197.343 1254.500 C 1218.362 1176.637, 1217.941 1178.104, 1220.537 1173.500 C 1223.469 1168.299, 1229.562 1163.464, 1235.043 1161.988 C 1244.554 1159.427, 1258.046 1166.320, 1263.200 1176.372 C 1266.027 1181.886, 1265.878 1189.138, 1262.704 1200.500 C 1261.321 1205.450, 1257.913 1217.825, 1255.130 1228 C 1252.348 1238.175, 1248.094 1253.475, 1245.677 1262 C 1243.260 1270.525, 1241.395 1277.639, 1241.533 1277.808 C 1241.912 1278.275, 1266.058 1266.459, 1278.500 1259.717 C 1301.265 1247.381, 1340.931 1222.013, 1345.686 1216.747 C 1347.039 1215.248, 1349.598 1207.173, 1353.368 1192.500 C 1364.406 1149.538, 1367.662 1137.738, 1369.689 1133.335 C 1372.967 1126.218, 1386.578 1120.918, 1396.278 1122.980 C 1402.581 1124.320, 1408.711 1128.342, 1411.357 1132.872 C 1414.378 1138.045, 1414.948 1143.358, 1413.322 1151.211 C 1412.526 1155.059, 1412.055 1158.389, 1412.277 1158.610 C 1412.921 1159.254, 1430.843 1139.492, 1440.198 1127.825 C 1450.216 1115.329, 1458.296 1104.042, 1466.123 1091.605 L 1471.745 1082.672 1465.009 1071.584 C 1445.272 1039.100, 1431.248 1000.718, 1425.336 963 C 1423.961 954.229, 1423.533 945.686, 1423.533 927 C 1423.532 901.069, 1424.978 888.887, 1429.953 872.903 C 1431.513 867.891, 1431.679 866.265, 1430.721 865.362 C 1430.049 864.728, 1409.475 849.258, 1385 830.984 C 1360.525 812.709, 1339.150 796.533, 1337.500 795.037 C 1333.134 791.079, 1324.890 789.976, 1300.885 790.136 C 1289.673 790.211, 1279.600 790.405, 1278.500 790.567 M 1538.665 845.047 C 1536.006 845.493, 1530.577 847.404, 1526.600 849.292 C 1494.193 864.682, 1484.815 916.699, 1503.945 974.956 C 1512.901 1002.230, 1529.550 1030.322, 1548.115 1049.486 C 1575.865 1078.132, 1604.239 1089.179, 1628.877 1080.931 C 1631.970 1079.896, 1635.896 1079.038, 1637.602 1079.025 C 1644.009 1078.974, 1650.712 1072.077, 1653.509 1062.657 C 1655.721 1055.209, 1655.457 1035.398, 1652.949 1020.700 C 1642.559 959.804, 1602.407 878.175, 1571.699 855.520 C 1568.290 853.004, 1564.362 849.858, 1562.971 848.528 C 1558.760 844.500, 1549.673 843.199, 1538.665 845.047 M 744.500 979.893 C 704.631 996.067, 674.940 1012.139, 637.722 1037.693 C 614.914 1053.353, 573 1086.724, 573 1089.223 C 573 1089.722, 575.859 1095.839, 579.353 1102.815 C 602.781 1149.589, 644.279 1208.979, 690.930 1262.500 C 706.276 1280.105, 710.475 1284.612, 730.416 1304.880 C 769.904 1345.014, 799.410 1369.721, 826.602 1385.420 C 834.317 1389.875, 848.929 1396.405, 849.624 1395.709 C 849.804 1395.529, 851.034 1390.458, 852.358 1384.441 C 853.681 1378.423, 858.867 1355.431, 863.882 1333.346 C 868.897 1311.262, 873 1292.512, 873 1291.681 C 873 1290.849, 869.622 1286.489, 865.492 1281.992 C 846.853 1261.689, 833.302 1234.613, 826.794 1204.664 C 824.858 1195.757, 824.582 1191.470, 824.557 1170 C 824.526 1142.365, 825.349 1136.009, 832.202 1111 C 837.604 1091.285, 844.754 1072.877, 854.950 1052.432 L 863.500 1035.288 858 1032.022 C 852.575 1028.800, 834.733 1018.410, 785.261 989.665 C 771.380 981.599, 759.230 975.006, 758.261 975.012 C 757.292 975.019, 751.100 977.216, 744.500 979.893 M 533.853 1125.750 C 509.641 1150.241, 497.542 1163.446, 481.974 1182.369 C 478.413 1186.697, 472.800 1193.490, 469.500 1197.464 C 455.910 1213.830, 434.903 1242.626, 416.381 1270.276 L 403.804 1289.052 405.474 1293.276 C 406.392 1295.599, 409.958 1302.911, 413.398 1309.523 C 449.967 1379.830, 534.005 1469.797, 616 1526.418 C 627.150 1534.118, 651.373 1548.658, 661.683 1553.841 L 669.867 1557.955 675.574 1552.472 C 681.800 1546.489, 693.850 1537.681, 712.500 1525.482 C 719.100 1521.164, 727.200 1515.098, 730.500 1512.001 C 737.655 1505.287, 745.383 1499.957, 757.300 1493.519 C 770.022 1486.646, 777.688 1480.754, 778.373 1477.322 C 778.683 1475.770, 779.881 1467.300, 781.035 1458.500 C 784.423 1432.673, 785.610 1427.241, 789.137 1421.422 C 792.758 1415.447, 799.797 1409.643, 806.515 1407.093 L 811.086 1405.358 801.793 1399.244 C 750.733 1365.651, 676.689 1289.861, 619.840 1213 C 596.286 1181.154, 574.993 1147.820, 561.231 1121.250 C 557.172 1113.412, 553.522 1107, 553.120 1107 C 552.719 1107, 544.049 1115.438, 533.853 1125.750 M 384.977 1319.750 C 341.828 1392.624, 303.292 1479.308, 279.381 1557.283 L 274.809 1572.191 277.650 1575.157 C 286.131 1584.008, 322.534 1603.613, 351.187 1614.758 C 377.586 1625.027, 406.043 1633.925, 431.500 1639.871 C 468.468 1648.504, 491.440 1651.927, 517 1652.610 C 527.175 1652.882, 537.333 1653.567, 539.574 1654.133 C 543.543 1655.135, 543.994 1654.966, 557.226 1647.527 C 564.694 1643.328, 575.911 1635.880, 582.152 1630.976 C 588.394 1626.072, 605.425 1613.199, 620 1602.369 C 634.575 1591.539, 647.868 1581.513, 649.541 1580.089 L 652.581 1577.500 639.805 1570.271 C 572.302 1532.080, 496.088 1464.475, 437.729 1391.022 C 422.713 1372.122, 404.207 1344.522, 393.964 1325.750 C 391.038 1320.388, 388.318 1316, 387.921 1316 C 387.523 1316, 386.198 1317.688, 384.977 1319.750 M 906.530 1316.970 C 905.305 1319.023, 885.906 1380.062, 884.585 1386.024 C 883.673 1390.136, 882.015 1396.650, 880.900 1400.500 C 877.199 1413.285, 875.577 1411.781, 893.153 1411.862 C 901.594 1411.901, 914.125 1412.388, 921 1412.944 C 927.875 1413.500, 933.950 1413.964, 934.500 1413.976 C 935.701 1414.002, 939.651 1406.436, 948.585 1387 C 952.251 1379.025, 957.505 1367.775, 960.260 1362 C 966.295 1349.351, 969 1343.141, 969 1341.936 C 969 1341.442, 967.763 1340.761, 966.250 1340.423 C 956.944 1338.341, 934.358 1329.851, 921.673 1323.667 C 913.519 1319.692, 906.704 1316.678, 906.530 1316.970 M 262.160 1619.693 C 250.792 1666.664, 245.106 1699.412, 239.967 1747.500 C 237.909 1766.758, 235.525 1808.858, 236.440 1809.774 C 236.744 1810.078, 239.807 1808.135, 243.247 1805.457 C 246.686 1802.779, 255.575 1795.947, 263 1790.274 C 270.425 1784.602, 281.675 1776.001, 288 1771.161 C 295.949 1765.079, 300.225 1761.058, 301.847 1758.140 C 305.046 1752.387, 307.139 1751.247, 320.736 1747.844 C 370.252 1735.454, 420.934 1716.255, 482.966 1686.390 L 501.432 1677.500 496.466 1676.769 C 493.735 1676.368, 485.200 1675.109, 477.500 1673.973 C 419.298 1665.386, 356.014 1646.149, 306.500 1621.992 C 294.671 1616.221, 277.645 1606.335, 269.348 1600.420 C 267.201 1598.890, 267.182 1598.939, 262.160 1619.693" stroke="none" fill="#ffffff" fill-rule="evenodd"/>
</svg>